# generated from PmQm by Jehee Lee
:FULLY-SPECIFIED
:DEGREES
307
root 9.89525 3.60911 4.10687 -101.071 85.5261 -23.6149
RightUpLeg -10.2582 -1.56313 -1.48176
RightLeg -6.37288 -32.8272 5.89671
RightFoot 16.1426 -5.36776 20.3875
RightToes 4.07452e-010 -1.59028e-015 9.93923e-017
Spine -35.4872 0.891646 6.0078
Spine1 30.1272 0.865945 -5.34099
HEad -42.662 13.6011 6.83434
LeftShoulder1 9.93923e-017 -0 1.22299e-017
LeftArm 7.20384 40.1555 -59.7119
LeftForeArm 10.3938 -3.51171 -5.95946
LeftHand 1.46272 11.6125 -4.39988
RightShoulder 1.98785e-016 -4.96962e-017 1.55301e-017
RightArm 6.85986 -50.5226 58.3941
RightForeArm -17.0568 12.0426 1.52646
RightHand 3.30767 -21.4645 -9.4626
LeftUpLeg -16.4086 2.74353 7.67797
LeftLeg 2.40181 24.6811 3.31509
LeftFoot 12.1138 4.6919 -20.3406
LeftToes 1.53707e-010 -1.11459e-010 1.58109e-011
308
root 9.89531 3.59457 4.11665 -98.4755 85.5655 -21.0287
RightUpLeg -10.3078 -1.42236 -1.40273
RightLeg -6.44242 -32.9536 5.83541
RightFoot 16.2388 -5.3932 20.4135
RightToes 4.07452e-010 -1.59028e-015 9.93923e-017
Spine -35.2808 0.990756 6.07672
Spine1 29.8642 0.974666 -5.40067
HEad -42.7034 13.7397 6.87889
LeftShoulder1 9.93923e-017 -0 1.22299e-017
LeftArm 7.22361 40.2012 -59.653
LeftForeArm 10.6037 -3.50294 -5.94643
LeftHand 1.45919 11.5945 -4.44741
RightShoulder 1.98785e-016 -4.96962e-017 1.55301e-017
RightArm 6.97783 -50.6172 58.3811
RightForeArm -17.6099 12.2526 1.28685
RightHand 3.30742 -21.5905 -9.29403
LeftUpLeg -16.4048 2.78499 7.70964
LeftLeg 2.39323 24.6511 3.30477
LeftFoot 12.1101 4.70862 -20.4152
LeftToes 1.53707e-010 -1.11459e-010 1.58109e-011
309
root 9.89394 3.60188 4.13353 -97.7027 85.5767 -20.2384
RightUpLeg -10.2428 -1.39373 -1.36771
RightLeg -6.53237 -33.1622 5.8808
RightFoot 16.3211 -5.40265 20.39
RightToes 4.07452e-010 -1.59028e-015 9.93923e-017
Spine -35.2292 0.974365 5.97733
Spine1 29.7828 0.95816 -5.32541
HEad -42.7955 13.8151 7.0154
LeftShoulder1 9.93923e-017 -0 1.22299e-017
LeftArm 7.46591 40.2731 -59.5495
LeftForeArm 10.5047 -3.54291 -5.96447
LeftHand 1.45328 11.5381 -4.44969
RightShoulder 1.98785e-016 -4.96962e-017 1.55301e-017
RightArm 7.06737 -50.6848 58.4135
RightForeArm -17.6068 12.3016 1.23436
RightHand 3.30787 -21.5322 -9.37465
LeftUpLeg -16.3474 2.82268 7.73828
LeftLeg 2.33664 24.5043 3.25064
LeftFoot 12.1305 4.72274 -20.4589
LeftToes 1.53707e-010 -1.11459e-010 1.58109e-011
310
root 9.89235 3.63975 4.14207 -98.8618 85.6796 -21.2216
RightUpLeg -9.97702 -1.78406 -1.58842
RightLeg -6.41463 -33.0391 6.07556
RightFoot 16.2237 -5.36426 20.3168
RightToes 4.07452e-010 -1.59028e-015 9.93923e-017
Spine -35.2333 0.870775 5.7599
Spine1 29.9243 0.881475 -5.21295
HEad -42.9449 13.8922 7.13284
LeftShoulder1 9.93923e-017 -0 1.22299e-017
LeftArm 7.81019 40.3622 -59.4529
LeftForeArm 10.1396 -3.60979 -6.00364
LeftHand 1.45416 11.521 -4.38291
RightShoulder 1.98785e-016 -4.96962e-017 1.55301e-017
RightArm 7.03998 -50.6874 58.4674
RightForeArm -17.3144 12.2199 1.33207
RightHand 3.31554 -21.4248 -9.57262
LeftUpLeg -15.9852 2.71936 7.63123
LeftLeg 2.07852 24.4891 3.1459
LeftFoot 12.1905 4.73167 -20.4477
LeftToes 1.53707e-010 -1.11459e-010 1.58109e-011
311
root 9.89149 3.66929 4.14603 -99.8228 85.8084 -21.9813
RightUpLeg -9.72449 -2.21522 -1.85134
RightLeg -6.23375 -32.852 6.24658
RightFoot 16.09 -5.31814 20.24
RightToes 4.07452e-010 -1.59028e-015 9.93923e-017
Spine -35.1691 0.78751 5.5654
Spine1 30.0503 0.831385 -5.12333
HEad -43.0915 14.0082 7.18856
LeftShoulder1 9.93923e-017 -0 1.22299e-017
LeftArm 7.87891 40.4118 -59.3978
LeftForeArm 10.0371 -3.61587 -6.01039
LeftHand 1.45855 11.5746 -4.41154
RightShoulder 1.98785e-016 -4.96962e-017 1.55301e-017
RightArm 6.77668 -50.6437 58.5445
RightForeArm -16.8526 12.0622 1.48985
RightHand 3.32255 -21.3773 -9.71029
LeftUpLeg -15.5811 2.58606 7.49611
LeftLeg 1.79028 24.6273 3.0573
LeftFoot 12.2833 4.73728 -20.3956
LeftToes 1.53707e-010 -1.11459e-010 1.58109e-011
312
root 9.89129 3.66889 4.15901 -99.7117 85.8258 -21.8196
RightUpLeg -9.6548 -2.24598 -1.864
RightLeg -6.25047 -33.0224 6.27664
RightFoot 16.1067 -5.30536 20.1805
RightToes 4.07452e-010 -1.59028e-015 9.93923e-017
Spine -35.0671 0.743853 5.41625
Spine1 29.9899 0.779602 -4.98923
HEad -43.1796 14.1542 7.21723
LeftShoulder1 9.93923e-017 -0 1.22299e-017
LeftArm 7.71133 40.435 -59.357
LeftForeArm 10.1827 -3.56513 -5.98725
LeftHand 1.46157 11.6688 -4.57708
RightShoulder 1.98785e-016 -4.96962e-017 1.55301e-017
RightArm 6.51923 -50.6418 58.6011
RightForeArm -16.5327 11.9667 1.56673
RightHand 3.3221 -21.3907 -9.72141
LeftUpLeg -15.486 2.607 7.50852
LeftLeg 1.71853 24.6901 3.02036
LeftFoot 12.3359 4.7398 -20.3635
LeftToes 1.53707e-010 -1.11459e-010 1.58109e-011
